<svg xmlns="http://www.w3.org/2000/svg" width="1512" height="982" viewBox="0 0 1512 982" fill="none">
    <rect x="-18.5" y="0.5" width="62" height="62" fill="#F2F2F6" stroke="#E2E8F0"/>
    <rect x="43.5" y="0.5" width="62" height="62" fill="#F2F2F6" stroke="#E2E8F0"/>
    <rect x="105.5" y="0.5" width="62" height="62" fill="#F2F2F6" stroke="#E2E8F0"/>
    <rect x="167.5" y="0.5" width="62" height="62" fill="#F2F2F6" stroke="#E2E8F0"/>
    <rect x="229.5" y="0.5" width="62" height="62" fill="#F2F2F6" stroke="#E2E8F0"/>
    <rect x="291.5" y="0.5" width="62" height="62" fill="#F2F2F6" stroke="#E2E8F0"/>
    <rect x="353.5" y="0.5" width="62" height="62" fill="#F2F2F6" stroke="#E2E8F0"/>
    <rect x="415.5" y="0.5" width="62" height="62" fill="#F2F2F6" stroke="#E2E8F0"/>
    <rect x="477.5" y="0.5" width="62" height="62" fill="#F2F2F6" stroke="#E2E8F0"/>
    <rect x="539.5" y="0.5" width="62" height="62" fill="#F2F2F6" stroke="#E2E8F0"/>
    <rect x="601.5" y="0.5" width="62" height="62" fill="#F2F2F6" stroke="#E2E8F0"/>
    <rect x="663.5" y="0.5" width="62" height="62" fill="#F2F2F6" stroke="#E2E8F0"/>
    <rect x="725.5" y="0.5" width="62" height="62" fill="#F2F2F6" stroke="#E2E8F0"/>
    <rect x="787.5" y="0.5" width="62" height="62" fill="#F2F2F6" stroke="#E2E8F0"/>
    <rect x="849.5" y="0.5" width="62" height="62" fill="#F2F2F6" stroke="#E2E8F0"/>
    <rect x="911.5" y="0.5" width="62" height="62" fill="#F2F2F6" stroke="#E2E8F0"/>
    <rect x="973.5" y="0.5" width="62" height="62" fill="#F2F2F6" stroke="#E2E8F0"/>
    <rect x="1035.5" y="0.5" width="62" height="62" fill="#F2F2F6" stroke="#E2E8F0"/>
    <rect x="1097.5" y="0.5" width="62" height="62" fill="#F2F2F6" stroke="#E2E8F0"/>
    <rect x="1159.5" y="0.5" width="62" height="62" fill="#F2F2F6" stroke="#E2E8F0"/>
    <rect x="1221.5" y="0.5" width="62" height="62" fill="#F2F2F6" stroke="#E2E8F0"/>
    <rect x="1283.5" y="0.5" width="62" height="62" fill="#F2F2F6" stroke="#E2E8F0"/>
    <rect x="1345.5" y="0.5" width="62" height="62" fill="#F2F2F6" stroke="#E2E8F0"/>
    <rect x="1407.5" y="0.5" width="62" height="62" fill="#F2F2F6" stroke="#E2E8F0"/>
    <rect x="1469.5" y="0.5" width="62" height="62" fill="#F2F2F6" stroke="#E2E8F0"/>
    <rect x="-18.5" y="62.5" width="62" height="62" fill="#F2F2F6" stroke="#E2E8F0"/>
    <rect x="43.5" y="62.5" width="62" height="62" fill="#F2F2F6" stroke="#E2E8F0"/>
    <rect x="105.5" y="62.5" width="62" height="62" fill="#F2F2F6" stroke="#E2E8F0"/>
    <rect x="167.5" y="62.5" width="62" height="62" fill="#F2F2F6" stroke="#E2E8F0"/>
    <rect x="229.5" y="62.5" width="62" height="62" fill="#F2F2F6" stroke="#E2E8F0"/>
    <rect x="291.5" y="62.5" width="62" height="62" fill="#F2F2F6" stroke="#E2E8F0"/>
    <rect x="353.5" y="62.5" width="62" height="62" fill="#F2F2F6" stroke="#E2E8F0"/>
    <rect x="415.5" y="62.5" width="62" height="62" fill="#F2F2F6" stroke="#E2E8F0"/>
    <rect x="477.5" y="62.5" width="62" height="62" fill="#F2F2F6" stroke="#E2E8F0"/>
    <rect x="539.5" y="62.5" width="62" height="62" fill="#F2F2F6" stroke="#E2E8F0"/>
    <rect x="601.5" y="62.5" width="62" height="62" fill="#F2F2F6" stroke="#E2E8F0"/>
    <rect x="663.5" y="62.5" width="62" height="62" fill="#F2F2F6" stroke="#E2E8F0"/>
    <rect x="725.5" y="62.5" width="62" height="62" fill="#F2F2F6" stroke="#E2E8F0"/>
    <rect x="787.5" y="62.5" width="62" height="62" fill="#F2F2F6" stroke="#E2E8F0"/>
    <rect x="849.5" y="62.5" width="62" height="62" fill="#F2F2F6" stroke="#E2E8F0"/>
    <rect x="911.5" y="62.5" width="62" height="62" fill="#F2F2F6" stroke="#E2E8F0"/>
    <rect x="973.5" y="62.5" width="62" height="62" fill="#F2F2F6" stroke="#E2E8F0"/>
    <rect x="1035.5" y="62.5" width="62" height="62" fill="#F2F2F6" stroke="#E2E8F0"/>
    <rect x="1097.5" y="62.5" width="62" height="62" fill="#F2F2F6" stroke="#E2E8F0"/>
    <rect x="1159.5" y="62.5" width="62" height="62" fill="#F2F2F6" stroke="#E2E8F0"/>
    <rect x="1221.5" y="62.5" width="62" height="62" fill="#F2F2F6" stroke="#E2E8F0"/>
    <rect x="1283.5" y="62.5" width="62" height="62" fill="#F2F2F6" stroke="#E2E8F0"/>
    <rect x="1345.5" y="62.5" width="62" height="62" fill="#F2F2F6" stroke="#E2E8F0"/>
    <rect x="1407.5" y="62.5" width="62" height="62" fill="#F2F2F6" stroke="#E2E8F0"/>
    <rect x="1469.5" y="62.5" width="62" height="62" fill="#F2F2F6" stroke="#E2E8F0"/>
    <rect x="-18.5" y="124.5" width="62" height="62" fill="#F2F2F6" stroke="#E2E8F0"/>
    <rect x="43.5" y="124.5" width="62" height="62" fill="#F2F2F6" stroke="#E2E8F0"/>
    <rect x="105.5" y="124.5" width="62" height="62" fill="#F2F2F6" stroke="#E2E8F0"/>
    <rect x="167.5" y="124.5" width="62" height="62" fill="#F2F2F6" stroke="#E2E8F0"/>
    <rect x="229.5" y="124.5" width="62" height="62" fill="#F2F2F6" stroke="#E2E8F0"/>
    <rect x="291.5" y="124.5" width="62" height="62" fill="#F2F2F6" stroke="#E2E8F0"/>
    <rect x="353.5" y="124.5" width="62" height="62" fill="#F2F2F6" stroke="#E2E8F0"/>
    <rect x="415.5" y="124.5" width="62" height="62" fill="#F2F2F6" stroke="#E2E8F0"/>
    <rect x="477.5" y="124.5" width="62" height="62" fill="#F2F2F6" stroke="#E2E8F0"/>
    <rect x="539.5" y="124.5" width="62" height="62" fill="#F2F2F6" stroke="#E2E8F0"/>
    <rect x="601.5" y="124.5" width="62" height="62" fill="#F2F2F6" stroke="#E2E8F0"/>
    <rect x="663.5" y="124.5" width="62" height="62" fill="#F2F2F6" stroke="#E2E8F0"/>
    <rect x="725.5" y="124.5" width="62" height="62" fill="#F2F2F6" stroke="#E2E8F0"/>
    <rect x="787.5" y="124.5" width="62" height="62" fill="#F2F2F6" stroke="#E2E8F0"/>
    <rect x="849.5" y="124.5" width="62" height="62" fill="#F2F2F6" stroke="#E2E8F0"/>
    <rect x="911.5" y="124.5" width="62" height="62" fill="#F2F2F6" stroke="#E2E8F0"/>
    <rect x="973.5" y="124.5" width="62" height="62" fill="#F2F2F6" stroke="#E2E8F0"/>
    <rect x="1035.5" y="124.5" width="62" height="62" fill="#F2F2F6" stroke="#E2E8F0"/>
    <rect x="1097.5" y="124.5" width="62" height="62" fill="#F2F2F6" stroke="#E2E8F0"/>
    <rect x="1159.5" y="124.5" width="62" height="62" fill="#F2F2F6" stroke="#E2E8F0"/>
    <rect x="1221.5" y="124.5" width="62" height="62" fill="#F2F2F6" stroke="#E2E8F0"/>
    <rect x="1283.5" y="124.5" width="62" height="62" fill="#F2F2F6" stroke="#E2E8F0"/>
    <rect x="1345.5" y="124.5" width="62" height="62" fill="#F2F2F6" stroke="#E2E8F0"/>
    <rect x="1407.5" y="124.5" width="62" height="62" fill="#F2F2F6" stroke="#E2E8F0"/>
    <rect x="1469.5" y="124.5" width="62" height="62" fill="#F2F2F6" stroke="#E2E8F0"/>
    <rect x="-18.5" y="186.5" width="62" height="62" fill="#F2F2F6" stroke="#E2E8F0"/>
    <rect x="43.5" y="186.5" width="62" height="62" fill="#F2F2F6" stroke="#E2E8F0"/>
    <rect x="105.5" y="186.5" width="62" height="62" fill="#F2F2F6" stroke="#E2E8F0"/>
    <rect x="167.5" y="186.5" width="62" height="62" fill="#F2F2F6" stroke="#E2E8F0"/>
    <rect x="229.5" y="186.5" width="62" height="62" fill="#F2F2F6" stroke="#E2E8F0"/>
    <rect x="291.5" y="186.5" width="62" height="62" fill="#F2F2F6" stroke="#E2E8F0"/>
    <rect x="353.5" y="186.5" width="62" height="62" fill="#F2F2F6" stroke="#E2E8F0"/>
    <rect x="415.5" y="186.5" width="62" height="62" fill="#F2F2F6" stroke="#E2E8F0"/>
    <rect x="477.5" y="186.5" width="62" height="62" fill="#F2F2F6" stroke="#E2E8F0"/>
    <rect x="539.5" y="186.5" width="62" height="62" fill="#F2F2F6" stroke="#E2E8F0"/>
    <rect x="601.5" y="186.5" width="62" height="62" fill="#F2F2F6" stroke="#E2E8F0"/>
    <rect x="663.5" y="186.5" width="62" height="62" fill="#F2F2F6" stroke="#E2E8F0"/>
    <rect x="725.5" y="186.5" width="62" height="62" fill="#F2F2F6" stroke="#E2E8F0"/>
    <rect x="787.5" y="186.5" width="62" height="62" fill="#F2F2F6" stroke="#E2E8F0"/>
    <rect x="849.5" y="186.5" width="62" height="62" fill="#F2F2F6" stroke="#E2E8F0"/>
    <rect x="911.5" y="186.5" width="62" height="62" fill="#F2F2F6" stroke="#E2E8F0"/>
    <rect x="973.5" y="186.5" width="62" height="62" fill="#F2F2F6" stroke="#E2E8F0"/>
    <rect x="1035.5" y="186.5" width="62" height="62" fill="#F2F2F6" stroke="#E2E8F0"/>
    <rect x="1097.5" y="186.5" width="62" height="62" fill="#F2F2F6" stroke="#E2E8F0"/>
    <rect x="1159.5" y="186.5" width="62" height="62" fill="#F2F2F6" stroke="#E2E8F0"/>
    <rect x="1221.5" y="186.5" width="62" height="62" fill="#F2F2F6" stroke="#E2E8F0"/>
    <rect x="1283.5" y="186.5" width="62" height="62" fill="#F2F2F6" stroke="#E2E8F0"/>
    <rect x="1345.5" y="186.5" width="62" height="62" fill="#F2F2F6" stroke="#E2E8F0"/>
    <rect x="1407.5" y="186.5" width="62" height="62" fill="#F2F2F6" stroke="#E2E8F0"/>
    <rect x="1469.5" y="186.5" width="62" height="62" fill="#F2F2F6" stroke="#E2E8F0"/>
    <rect x="-18.5" y="248.5" width="62" height="62" fill="#F2F2F6" stroke="#E2E8F0"/>
    <rect x="43.5" y="248.5" width="62" height="62" fill="#F2F2F6" stroke="#E2E8F0"/>
    <rect x="105.5" y="248.5" width="62" height="62" fill="#F2F2F6" stroke="#E2E8F0"/>
    <rect x="167.5" y="248.5" width="62" height="62" fill="#F2F2F6" stroke="#E2E8F0"/>
    <rect x="229.5" y="248.5" width="62" height="62" fill="#F2F2F6" stroke="#E2E8F0"/>
    <rect x="291.5" y="248.5" width="62" height="62" fill="#F2F2F6" stroke="#E2E8F0"/>
    <rect x="353.5" y="248.5" width="62" height="62" fill="#F2F2F6" stroke="#E2E8F0"/>
    <rect x="415.5" y="248.5" width="62" height="62" fill="#F2F2F6" stroke="#E2E8F0"/>
    <rect x="477.5" y="248.5" width="62" height="62" fill="#F2F2F6" stroke="#E2E8F0"/>
    <rect x="539.5" y="248.5" width="62" height="62" fill="#F2F2F6" stroke="#E2E8F0"/>
    <rect x="601.5" y="248.5" width="62" height="62" fill="#F2F2F6" stroke="#E2E8F0"/>
    <rect x="663.5" y="248.5" width="62" height="62" fill="#F2F2F6" stroke="#E2E8F0"/>
    <rect x="725.5" y="248.5" width="62" height="62" fill="#F2F2F6" stroke="#E2E8F0"/>
    <rect x="787.5" y="248.5" width="62" height="62" fill="#F2F2F6" stroke="#E2E8F0"/>
    <rect x="849.5" y="248.5" width="62" height="62" fill="#F2F2F6" stroke="#E2E8F0"/>
    <rect x="911.5" y="248.5" width="62" height="62" fill="#F2F2F6" stroke="#E2E8F0"/>
    <rect x="973.5" y="248.5" width="62" height="62" fill="#F2F2F6" stroke="#E2E8F0"/>
    <rect x="1035.5" y="248.5" width="62" height="62" fill="#F2F2F6" stroke="#E2E8F0"/>
    <rect x="1097.5" y="248.5" width="62" height="62" fill="#F2F2F6" stroke="#E2E8F0"/>
    <rect x="1159.5" y="248.5" width="62" height="62" fill="#F2F2F6" stroke="#E2E8F0"/>
    <rect x="1221.5" y="248.5" width="62" height="62" fill="#F2F2F6" stroke="#E2E8F0"/>
    <rect x="1283.5" y="248.5" width="62" height="62" fill="#F2F2F6" stroke="#E2E8F0"/>
    <rect x="1345.5" y="248.5" width="62" height="62" fill="#F2F2F6" stroke="#E2E8F0"/>
    <rect x="1407.5" y="248.5" width="62" height="62" fill="#F2F2F6" stroke="#E2E8F0"/>
    <rect x="1469.5" y="248.5" width="62" height="62" fill="#F2F2F6" stroke="#E2E8F0"/>
    <rect x="-18.5" y="310.5" width="62" height="62" fill="#F2F2F6" stroke="#E2E8F0"/>
    <rect x="43.5" y="310.5" width="62" height="62" fill="#F2F2F6" stroke="#E2E8F0"/>
    <rect x="105.5" y="310.5" width="62" height="62" fill="#F2F2F6" stroke="#E2E8F0"/>
    <rect x="167.5" y="310.5" width="62" height="62" fill="#F2F2F6" stroke="#E2E8F0"/>
    <rect x="229.5" y="310.5" width="62" height="62" fill="#F2F2F6" stroke="#E2E8F0"/>
    <rect x="291.5" y="310.5" width="62" height="62" fill="#F2F2F6" stroke="#E2E8F0"/>
    <rect x="353.5" y="310.5" width="62" height="62" fill="#F2F2F6" stroke="#E2E8F0"/>
    <rect x="415.5" y="310.5" width="62" height="62" fill="#F2F2F6" stroke="#E2E8F0"/>
    <rect x="477.5" y="310.5" width="62" height="62" fill="#F2F2F6" stroke="#E2E8F0"/>
    <rect x="539.5" y="310.5" width="62" height="62" fill="#F2F2F6" stroke="#E2E8F0"/>
    <rect x="601.5" y="310.5" width="62" height="62" fill="#F2F2F6" stroke="#E2E8F0"/>
    <rect x="663.5" y="310.5" width="62" height="62" fill="#F2F2F6" stroke="#E2E8F0"/>
    <rect x="725.5" y="310.5" width="62" height="62" fill="#F2F2F6" stroke="#E2E8F0"/>
    <rect x="787.5" y="310.5" width="62" height="62" fill="#F2F2F6" stroke="#E2E8F0"/>
    <rect x="849.5" y="310.5" width="62" height="62" fill="#F2F2F6" stroke="#E2E8F0"/>
    <rect x="911.5" y="310.5" width="62" height="62" fill="#F2F2F6" stroke="#E2E8F0"/>
    <rect x="973.5" y="310.5" width="62" height="62" fill="#F2F2F6" stroke="#E2E8F0"/>
    <rect x="1035.5" y="310.5" width="62" height="62" fill="#F2F2F6" stroke="#E2E8F0"/>
    <rect x="1097.5" y="310.5" width="62" height="62" fill="#F2F2F6" stroke="#E2E8F0"/>
    <rect x="1159.5" y="310.5" width="62" height="62" fill="#F2F2F6" stroke="#E2E8F0"/>
    <rect x="1221.5" y="310.5" width="62" height="62" fill="#F2F2F6" stroke="#E2E8F0"/>
    <rect x="1283.5" y="310.5" width="62" height="62" fill="#F2F2F6" stroke="#E2E8F0"/>
    <rect x="1345.5" y="310.5" width="62" height="62" fill="#F2F2F6" stroke="#E2E8F0"/>
    <rect x="1407.5" y="310.5" width="62" height="62" fill="#F2F2F6" stroke="#E2E8F0"/>
    <rect x="1469.5" y="310.5" width="62" height="62" fill="#F2F2F6" stroke="#E2E8F0"/>
    <rect x="-18.5" y="372.5" width="62" height="62" fill="#F2F2F6" stroke="#E2E8F0"/>
    <rect x="43.5" y="372.5" width="62" height="62" fill="#F2F2F6" stroke="#E2E8F0"/>
    <rect x="105.5" y="372.5" width="62" height="62" fill="#F2F2F6" stroke="#E2E8F0"/>
    <rect x="167.5" y="372.5" width="62" height="62" fill="#F2F2F6" stroke="#E2E8F0"/>
    <rect x="229.5" y="372.5" width="62" height="62" fill="#F2F2F6" stroke="#E2E8F0"/>
    <rect x="291.5" y="372.5" width="62" height="62" fill="#F2F2F6" stroke="#E2E8F0"/>
    <rect x="353.5" y="372.5" width="62" height="62" fill="#F2F2F6" stroke="#E2E8F0"/>
    <rect x="415.5" y="372.5" width="62" height="62" fill="#F2F2F6" stroke="#E2E8F0"/>
    <rect x="477.5" y="372.5" width="62" height="62" fill="#F2F2F6" stroke="#E2E8F0"/>
    <rect x="539.5" y="372.5" width="62" height="62" fill="#F2F2F6" stroke="#E2E8F0"/>
    <rect x="601.5" y="372.5" width="62" height="62" fill="#F2F2F6" stroke="#E2E8F0"/>
    <rect x="663.5" y="372.5" width="62" height="62" fill="#F2F2F6" stroke="#E2E8F0"/>
    <rect x="725.5" y="372.5" width="62" height="62" fill="#F2F2F6" stroke="#E2E8F0"/>
    <rect x="787.5" y="372.5" width="62" height="62" fill="#F2F2F6" stroke="#E2E8F0"/>
    <rect x="849.5" y="372.5" width="62" height="62" fill="#F2F2F6" stroke="#E2E8F0"/>
    <rect x="911.5" y="372.5" width="62" height="62" fill="#F2F2F6" stroke="#E2E8F0"/>
    <rect x="973.5" y="372.5" width="62" height="62" fill="#F2F2F6" stroke="#E2E8F0"/>
    <rect x="1035.5" y="372.5" width="62" height="62" fill="#F2F2F6" stroke="#E2E8F0"/>
    <rect x="1097.5" y="372.5" width="62" height="62" fill="#F2F2F6" stroke="#E2E8F0"/>
    <rect x="1159.5" y="372.5" width="62" height="62" fill="#F2F2F6" stroke="#E2E8F0"/>
    <rect x="1221.5" y="372.5" width="62" height="62" fill="#F2F2F6" stroke="#E2E8F0"/>
    <rect x="1283.5" y="372.5" width="62" height="62" fill="#F2F2F6" stroke="#E2E8F0"/>
    <rect x="1345.5" y="372.5" width="62" height="62" fill="#F2F2F6" stroke="#E2E8F0"/>
    <rect x="1407.5" y="372.5" width="62" height="62" fill="#F2F2F6" stroke="#E2E8F0"/>
    <rect x="1469.5" y="372.5" width="62" height="62" fill="#F2F2F6" stroke="#E2E8F0"/>
    <rect x="-18.5" y="434.5" width="62" height="62" fill="#F2F2F6" stroke="#E2E8F0"/>
    <rect x="43.5" y="434.5" width="62" height="62" fill="#F2F2F6" stroke="#E2E8F0"/>
    <rect x="105.5" y="434.5" width="62" height="62" fill="#F2F2F6" stroke="#E2E8F0"/>
    <rect x="167.5" y="434.5" width="62" height="62" fill="#F2F2F6" stroke="#E2E8F0"/>
    <rect x="229.5" y="434.5" width="62" height="62" fill="#F2F2F6" stroke="#E2E8F0"/>
    <rect x="291.5" y="434.5" width="62" height="62" fill="#F2F2F6" stroke="#E2E8F0"/>
    <rect x="353.5" y="434.5" width="62" height="62" fill="#F2F2F6" stroke="#E2E8F0"/>
    <rect x="415.5" y="434.5" width="62" height="62" fill="#F2F2F6" stroke="#E2E8F0"/>
    <rect x="477.5" y="434.5" width="62" height="62" fill="#F2F2F6" stroke="#E2E8F0"/>
    <rect x="539.5" y="434.5" width="62" height="62" fill="#F2F2F6" stroke="#E2E8F0"/>
    <rect x="601.5" y="434.5" width="62" height="62" fill="#F2F2F6" stroke="#E2E8F0"/>
    <rect x="663.5" y="434.5" width="62" height="62" fill="#F2F2F6" stroke="#E2E8F0"/>
    <rect x="725.5" y="434.5" width="62" height="62" fill="#F2F2F6" stroke="#E2E8F0"/>
    <rect x="787.5" y="434.5" width="62" height="62" fill="#F2F2F6" stroke="#E2E8F0"/>
    <rect x="849.5" y="434.5" width="62" height="62" fill="#F2F2F6" stroke="#E2E8F0"/>
    <rect x="911.5" y="434.5" width="62" height="62" fill="#F2F2F6" stroke="#E2E8F0"/>
    <rect x="973.5" y="434.5" width="62" height="62" fill="#F2F2F6" stroke="#E2E8F0"/>
    <rect x="1035.5" y="434.5" width="62" height="62" fill="#F2F2F6" stroke="#E2E8F0"/>
    <rect x="1097.5" y="434.5" width="62" height="62" fill="#F2F2F6" stroke="#E2E8F0"/>
    <rect x="1159.5" y="434.5" width="62" height="62" fill="#F2F2F6" stroke="#E2E8F0"/>
    <rect x="1221.5" y="434.5" width="62" height="62" fill="#F2F2F6" stroke="#E2E8F0"/>
    <rect x="1283.5" y="434.5" width="62" height="62" fill="#F2F2F6" stroke="#E2E8F0"/>
    <rect x="1345.5" y="434.5" width="62" height="62" fill="#F2F2F6" stroke="#E2E8F0"/>
    <rect x="1407.5" y="434.5" width="62" height="62" fill="#F2F2F6" stroke="#E2E8F0"/>
    <rect x="1469.5" y="434.5" width="62" height="62" fill="#F2F2F6" stroke="#E2E8F0"/>
    <rect x="-18.5" y="496.5" width="62" height="62" fill="#F2F2F6" stroke="#E2E8F0"/>
    <rect x="43.5" y="496.5" width="62" height="62" fill="#F2F2F6" stroke="#E2E8F0"/>
    <rect x="105.5" y="496.5" width="62" height="62" fill="#F2F2F6" stroke="#E2E8F0"/>
    <rect x="167.5" y="496.5" width="62" height="62" fill="#F2F2F6" stroke="#E2E8F0"/>
    <rect x="229.5" y="496.5" width="62" height="62" fill="#F2F2F6" stroke="#E2E8F0"/>
    <rect x="291.5" y="496.5" width="62" height="62" fill="#F2F2F6" stroke="#E2E8F0"/>
    <rect x="353.5" y="496.5" width="62" height="62" fill="#F2F2F6" stroke="#E2E8F0"/>
    <rect x="415.5" y="496.5" width="62" height="62" fill="#F2F2F6" stroke="#E2E8F0"/>
    <rect x="477.5" y="496.5" width="62" height="62" fill="#F2F2F6" stroke="#E2E8F0"/>
    <rect x="539.5" y="496.5" width="62" height="62" fill="#F2F2F6" stroke="#E2E8F0"/>
    <rect x="601.5" y="496.5" width="62" height="62" fill="#F2F2F6" stroke="#E2E8F0"/>
    <rect x="663.5" y="496.5" width="62" height="62" fill="#F2F2F6" stroke="#E2E8F0"/>
    <rect x="725.5" y="496.5" width="62" height="62" fill="#F2F2F6" stroke="#E2E8F0"/>
    <rect x="787.5" y="496.5" width="62" height="62" fill="#F2F2F6" stroke="#E2E8F0"/>
    <rect x="849.5" y="496.5" width="62" height="62" fill="#F2F2F6" stroke="#E2E8F0"/>
    <rect x="911.5" y="496.5" width="62" height="62" fill="#F2F2F6" stroke="#E2E8F0"/>
    <rect x="973.5" y="496.5" width="62" height="62" fill="#F2F2F6" stroke="#E2E8F0"/>
    <rect x="1035.5" y="496.5" width="62" height="62" fill="#F2F2F6" stroke="#E2E8F0"/>
    <rect x="1097.5" y="496.5" width="62" height="62" fill="#F2F2F6" stroke="#E2E8F0"/>
    <rect x="1159.5" y="496.5" width="62" height="62" fill="#F2F2F6" stroke="#E2E8F0"/>
    <rect x="1221.5" y="496.5" width="62" height="62" fill="#F2F2F6" stroke="#E2E8F0"/>
    <rect x="1283.5" y="496.5" width="62" height="62" fill="#F2F2F6" stroke="#E2E8F0"/>
    <rect x="1345.5" y="496.5" width="62" height="62" fill="#F2F2F6" stroke="#E2E8F0"/>
    <rect x="1407.5" y="496.5" width="62" height="62" fill="#F2F2F6" stroke="#E2E8F0"/>
    <rect x="1469.5" y="496.5" width="62" height="62" fill="#F2F2F6" stroke="#E2E8F0"/>
    <rect x="-18.5" y="558.5" width="62" height="62" fill="#F2F2F6" stroke="#E2E8F0"/>
    <rect x="43.5" y="558.5" width="62" height="62" fill="#F2F2F6" stroke="#E2E8F0"/>
    <rect x="105.5" y="558.5" width="62" height="62" fill="#F2F2F6" stroke="#E2E8F0"/>
    <rect x="167.5" y="558.5" width="62" height="62" fill="#F2F2F6" stroke="#E2E8F0"/>
    <rect x="229.5" y="558.5" width="62" height="62" fill="#F2F2F6" stroke="#E2E8F0"/>
    <rect x="291.5" y="558.5" width="62" height="62" fill="#F2F2F6" stroke="#E2E8F0"/>
    <rect x="353.5" y="558.5" width="62" height="62" fill="#F2F2F6" stroke="#E2E8F0"/>
    <rect x="415.5" y="558.5" width="62" height="62" fill="#F2F2F6" stroke="#E2E8F0"/>
    <rect x="477.5" y="558.5" width="62" height="62" fill="#F2F2F6" stroke="#E2E8F0"/>
    <rect x="539.5" y="558.5" width="62" height="62" fill="#F2F2F6" stroke="#E2E8F0"/>
    <rect x="601.5" y="558.5" width="62" height="62" fill="#F2F2F6" stroke="#E2E8F0"/>
    <rect x="663.5" y="558.5" width="62" height="62" fill="#F2F2F6" stroke="#E2E8F0"/>
    <rect x="725.5" y="558.5" width="62" height="62" fill="#F2F2F6" stroke="#E2E8F0"/>
    <rect x="787.5" y="558.5" width="62" height="62" fill="#F2F2F6" stroke="#E2E8F0"/>
    <rect x="849.5" y="558.5" width="62" height="62" fill="#F2F2F6" stroke="#E2E8F0"/>
    <rect x="911.5" y="558.5" width="62" height="62" fill="#F2F2F6" stroke="#E2E8F0"/>
    <rect x="973.5" y="558.5" width="62" height="62" fill="#F2F2F6" stroke="#E2E8F0"/>
    <rect x="1035.5" y="558.5" width="62" height="62" fill="#F2F2F6" stroke="#E2E8F0"/>
    <rect x="1097.5" y="558.5" width="62" height="62" fill="#F2F2F6" stroke="#E2E8F0"/>
    <rect x="1159.5" y="558.5" width="62" height="62" fill="#F2F2F6" stroke="#E2E8F0"/>
    <rect x="1221.5" y="558.5" width="62" height="62" fill="#F2F2F6" stroke="#E2E8F0"/>
    <rect x="1283.5" y="558.5" width="62" height="62" fill="#F2F2F6" stroke="#E2E8F0"/>
    <rect x="1345.5" y="558.5" width="62" height="62" fill="#F2F2F6" stroke="#E2E8F0"/>
    <rect x="1407.5" y="558.5" width="62" height="62" fill="#F2F2F6" stroke="#E2E8F0"/>
    <rect x="1469.5" y="558.5" width="62" height="62" fill="#F2F2F6" stroke="#E2E8F0"/>
    <rect x="-18.5" y="620.5" width="62" height="62" fill="#F2F2F6" stroke="#E2E8F0"/>
    <rect x="43.5" y="620.5" width="62" height="62" fill="#F2F2F6" stroke="#E2E8F0"/>
    <rect x="105.5" y="620.5" width="62" height="62" fill="#F2F2F6" stroke="#E2E8F0"/>
    <rect x="167.5" y="620.5" width="62" height="62" fill="#F2F2F6" stroke="#E2E8F0"/>
    <rect x="229.5" y="620.5" width="62" height="62" fill="#F2F2F6" stroke="#E2E8F0"/>
    <rect x="291.5" y="620.5" width="62" height="62" fill="#F2F2F6" stroke="#E2E8F0"/>
    <rect x="353.5" y="620.5" width="62" height="62" fill="#F2F2F6" stroke="#E2E8F0"/>
    <rect x="415.5" y="620.5" width="62" height="62" fill="#F2F2F6" stroke="#E2E8F0"/>
    <rect x="477.5" y="620.5" width="62" height="62" fill="#F2F2F6" stroke="#E2E8F0"/>
    <rect x="539.5" y="620.5" width="62" height="62" fill="#F2F2F6" stroke="#E2E8F0"/>
    <rect x="601.5" y="620.5" width="62" height="62" fill="#F2F2F6" stroke="#E2E8F0"/>
    <rect x="663.5" y="620.5" width="62" height="62" fill="#F2F2F6" stroke="#E2E8F0"/>
    <rect x="725.5" y="620.5" width="62" height="62" fill="#F2F2F6" stroke="#E2E8F0"/>
    <rect x="787.5" y="620.5" width="62" height="62" fill="#F2F2F6" stroke="#E2E8F0"/>
    <rect x="849.5" y="620.5" width="62" height="62" fill="#F2F2F6" stroke="#E2E8F0"/>
    <rect x="911.5" y="620.5" width="62" height="62" fill="#F2F2F6" stroke="#E2E8F0"/>
    <rect x="973.5" y="620.5" width="62" height="62" fill="#F2F2F6" stroke="#E2E8F0"/>
    <rect x="1035.5" y="620.5" width="62" height="62" fill="#F2F2F6" stroke="#E2E8F0"/>
    <rect x="1097.5" y="620.5" width="62" height="62" fill="#F2F2F6" stroke="#E2E8F0"/>
    <rect x="1159.5" y="620.5" width="62" height="62" fill="#F2F2F6" stroke="#E2E8F0"/>
    <rect x="1221.5" y="620.5" width="62" height="62" fill="#F2F2F6" stroke="#E2E8F0"/>
    <rect x="1283.5" y="620.5" width="62" height="62" fill="#F2F2F6" stroke="#E2E8F0"/>
    <rect x="1345.5" y="620.5" width="62" height="62" fill="#F2F2F6" stroke="#E2E8F0"/>
    <rect x="1407.5" y="620.5" width="62" height="62" fill="#F2F2F6" stroke="#E2E8F0"/>
    <rect x="1469.5" y="620.5" width="62" height="62" fill="#F2F2F6" stroke="#E2E8F0"/>
    <rect x="-18.5" y="682.5" width="62" height="62" fill="#F2F2F6" stroke="#E2E8F0"/>
    <rect x="43.5" y="682.5" width="62" height="62" fill="#F2F2F6" stroke="#E2E8F0"/>
    <rect x="105.5" y="682.5" width="62" height="62" fill="#F2F2F6" stroke="#E2E8F0"/>
    <rect x="167.5" y="682.5" width="62" height="62" fill="#F2F2F6" stroke="#E2E8F0"/>
    <rect x="229.5" y="682.5" width="62" height="62" fill="#F2F2F6" stroke="#E2E8F0"/>
    <rect x="291.5" y="682.5" width="62" height="62" fill="#F2F2F6" stroke="#E2E8F0"/>
    <rect x="353.5" y="682.5" width="62" height="62" fill="#F2F2F6" stroke="#E2E8F0"/>
    <rect x="415.5" y="682.5" width="62" height="62" fill="#F2F2F6" stroke="#E2E8F0"/>
    <rect x="477.5" y="682.5" width="62" height="62" fill="#F2F2F6" stroke="#E2E8F0"/>
    <rect x="539.5" y="682.5" width="62" height="62" fill="#F2F2F6" stroke="#E2E8F0"/>
    <rect x="601.5" y="682.5" width="62" height="62" fill="#F2F2F6" stroke="#E2E8F0"/>
    <rect x="663.5" y="682.5" width="62" height="62" fill="#F2F2F6" stroke="#E2E8F0"/>
    <rect x="725.5" y="682.5" width="62" height="62" fill="#F2F2F6" stroke="#E2E8F0"/>
    <rect x="787.5" y="682.5" width="62" height="62" fill="#F2F2F6" stroke="#E2E8F0"/>
    <rect x="849.5" y="682.5" width="62" height="62" fill="#F2F2F6" stroke="#E2E8F0"/>
    <rect x="911.5" y="682.5" width="62" height="62" fill="#F2F2F6" stroke="#E2E8F0"/>
    <rect x="973.5" y="682.5" width="62" height="62" fill="#F2F2F6" stroke="#E2E8F0"/>
    <rect x="1035.5" y="682.5" width="62" height="62" fill="#F2F2F6" stroke="#E2E8F0"/>
    <rect x="1097.5" y="682.5" width="62" height="62" fill="#F2F2F6" stroke="#E2E8F0"/>
    <rect x="1159.5" y="682.5" width="62" height="62" fill="#F2F2F6" stroke="#E2E8F0"/>
    <rect x="1221.5" y="682.5" width="62" height="62" fill="#F2F2F6" stroke="#E2E8F0"/>
    <rect x="1283.5" y="682.5" width="62" height="62" fill="#F2F2F6" stroke="#E2E8F0"/>
    <rect x="1345.5" y="682.5" width="62" height="62" fill="#F2F2F6" stroke="#E2E8F0"/>
    <rect x="1407.5" y="682.5" width="62" height="62" fill="#F2F2F6" stroke="#E2E8F0"/>
    <rect x="1469.5" y="682.5" width="62" height="62" fill="#F2F2F6" stroke="#E2E8F0"/>
    <rect x="-18.5" y="744.5" width="62" height="62" fill="#F2F2F6" stroke="#E2E8F0"/>
    <rect x="43.5" y="744.5" width="62" height="62" fill="#F2F2F6" stroke="#E2E8F0"/>
    <rect x="105.5" y="744.5" width="62" height="62" fill="#F2F2F6" stroke="#E2E8F0"/>
    <rect x="167.5" y="744.5" width="62" height="62" fill="#F2F2F6" stroke="#E2E8F0"/>
    <rect x="229.5" y="744.5" width="62" height="62" fill="#F2F2F6" stroke="#E2E8F0"/>
    <rect x="291.5" y="744.5" width="62" height="62" fill="#F2F2F6" stroke="#E2E8F0"/>
    <rect x="353.5" y="744.5" width="62" height="62" fill="#F2F2F6" stroke="#E2E8F0"/>
    <rect x="415.5" y="744.5" width="62" height="62" fill="#F2F2F6" stroke="#E2E8F0"/>
    <rect x="477.5" y="744.5" width="62" height="62" fill="#F2F2F6" stroke="#E2E8F0"/>
    <rect x="539.5" y="744.5" width="62" height="62" fill="#F2F2F6" stroke="#E2E8F0"/>
    <rect x="601.5" y="744.5" width="62" height="62" fill="#F2F2F6" stroke="#E2E8F0"/>
    <rect x="663.5" y="744.5" width="62" height="62" fill="#F2F2F6" stroke="#E2E8F0"/>
    <rect x="725.5" y="744.5" width="62" height="62" fill="#F2F2F6" stroke="#E2E8F0"/>
    <rect x="787.5" y="744.5" width="62" height="62" fill="#F2F2F6" stroke="#E2E8F0"/>
    <rect x="849.5" y="744.5" width="62" height="62" fill="#F2F2F6" stroke="#E2E8F0"/>
    <rect x="911.5" y="744.5" width="62" height="62" fill="#F2F2F6" stroke="#E2E8F0"/>
    <rect x="973.5" y="744.5" width="62" height="62" fill="#F2F2F6" stroke="#E2E8F0"/>
    <rect x="1035.5" y="744.5" width="62" height="62" fill="#F2F2F6" stroke="#E2E8F0"/>
    <rect x="1097.5" y="744.5" width="62" height="62" fill="#F2F2F6" stroke="#E2E8F0"/>
    <rect x="1159.5" y="744.5" width="62" height="62" fill="#F2F2F6" stroke="#E2E8F0"/>
    <rect x="1221.5" y="744.5" width="62" height="62" fill="#F2F2F6" stroke="#E2E8F0"/>
    <rect x="1283.5" y="744.5" width="62" height="62" fill="#F2F2F6" stroke="#E2E8F0"/>
    <rect x="1345.5" y="744.5" width="62" height="62" fill="#F2F2F6" stroke="#E2E8F0"/>
    <rect x="1407.5" y="744.5" width="62" height="62" fill="#F2F2F6" stroke="#E2E8F0"/>
    <rect x="1469.5" y="744.5" width="62" height="62" fill="#F2F2F6" stroke="#E2E8F0"/>
    <rect x="-18.5" y="806.5" width="62" height="62" fill="#F2F2F6" stroke="#E2E8F0"/>
    <rect x="43.5" y="806.5" width="62" height="62" fill="#F2F2F6" stroke="#E2E8F0"/>
    <rect x="105.5" y="806.5" width="62" height="62" fill="#F2F2F6" stroke="#E2E8F0"/>
    <rect x="167.5" y="806.5" width="62" height="62" fill="#F2F2F6" stroke="#E2E8F0"/>
    <rect x="229.5" y="806.5" width="62" height="62" fill="#F2F2F6" stroke="#E2E8F0"/>
    <rect x="291.5" y="806.5" width="62" height="62" fill="#F2F2F6" stroke="#E2E8F0"/>
    <rect x="353.5" y="806.5" width="62" height="62" fill="#F2F2F6" stroke="#E2E8F0"/>
    <rect x="415.5" y="806.5" width="62" height="62" fill="#F2F2F6" stroke="#E2E8F0"/>
    <rect x="477.5" y="806.5" width="62" height="62" fill="#F2F2F6" stroke="#E2E8F0"/>
    <rect x="539.5" y="806.5" width="62" height="62" fill="#F2F2F6" stroke="#E2E8F0"/>
    <rect x="601.5" y="806.5" width="62" height="62" fill="#F2F2F6" stroke="#E2E8F0"/>
    <rect x="663.5" y="806.5" width="62" height="62" fill="#F2F2F6" stroke="#E2E8F0"/>
    <rect x="725.5" y="806.5" width="62" height="62" fill="#F2F2F6" stroke="#E2E8F0"/>
    <rect x="787.5" y="806.5" width="62" height="62" fill="#F2F2F6" stroke="#E2E8F0"/>
    <rect x="849.5" y="806.5" width="62" height="62" fill="#F2F2F6" stroke="#E2E8F0"/>
    <rect x="911.5" y="806.5" width="62" height="62" fill="#F2F2F6" stroke="#E2E8F0"/>
    <rect x="973.5" y="806.5" width="62" height="62" fill="#F2F2F6" stroke="#E2E8F0"/>
    <rect x="1035.5" y="806.5" width="62" height="62" fill="#F2F2F6" stroke="#E2E8F0"/>
    <rect x="1097.5" y="806.5" width="62" height="62" fill="#F2F2F6" stroke="#E2E8F0"/>
    <rect x="1159.5" y="806.5" width="62" height="62" fill="#F2F2F6" stroke="#E2E8F0"/>
    <rect x="1221.5" y="806.5" width="62" height="62" fill="#F2F2F6" stroke="#E2E8F0"/>
    <rect x="1283.5" y="806.5" width="62" height="62" fill="#F2F2F6" stroke="#E2E8F0"/>
    <rect x="1345.5" y="806.5" width="62" height="62" fill="#F2F2F6" stroke="#E2E8F0"/>
    <rect x="1407.5" y="806.5" width="62" height="62" fill="#F2F2F6" stroke="#E2E8F0"/>
    <rect x="1469.5" y="806.5" width="62" height="62" fill="#F2F2F6" stroke="#E2E8F0"/>
    <rect x="-18.5" y="868.5" width="62" height="62" fill="#F2F2F6" stroke="#E2E8F0"/>
    <rect x="43.5" y="868.5" width="62" height="62" fill="#F2F2F6" stroke="#E2E8F0"/>
    <rect x="105.5" y="868.5" width="62" height="62" fill="#F2F2F6" stroke="#E2E8F0"/>
    <rect x="167.5" y="868.5" width="62" height="62" fill="#F2F2F6" stroke="#E2E8F0"/>
    <rect x="229.5" y="868.5" width="62" height="62" fill="#F2F2F6" stroke="#E2E8F0"/>
    <rect x="291.5" y="868.5" width="62" height="62" fill="#F2F2F6" stroke="#E2E8F0"/>
    <rect x="353.5" y="868.5" width="62" height="62" fill="#F2F2F6" stroke="#E2E8F0"/>
    <rect x="415.5" y="868.5" width="62" height="62" fill="#F2F2F6" stroke="#E2E8F0"/>
    <rect x="477.5" y="868.5" width="62" height="62" fill="#F2F2F6" stroke="#E2E8F0"/>
    <rect x="539.5" y="868.5" width="62" height="62" fill="#F2F2F6" stroke="#E2E8F0"/>
    <rect x="601.5" y="868.5" width="62" height="62" fill="#F2F2F6" stroke="#E2E8F0"/>
    <rect x="663.5" y="868.5" width="62" height="62" fill="#F2F2F6" stroke="#E2E8F0"/>
    <rect x="725.5" y="868.5" width="62" height="62" fill="#F2F2F6" stroke="#E2E8F0"/>
    <rect x="787.5" y="868.5" width="62" height="62" fill="#F2F2F6" stroke="#E2E8F0"/>
    <rect x="849.5" y="868.5" width="62" height="62" fill="#F2F2F6" stroke="#E2E8F0"/>
    <rect x="911.5" y="868.5" width="62" height="62" fill="#F2F2F6" stroke="#E2E8F0"/>
    <rect x="973.5" y="868.5" width="62" height="62" fill="#F2F2F6" stroke="#E2E8F0"/>
    <rect x="1035.5" y="868.5" width="62" height="62" fill="#F2F2F6" stroke="#E2E8F0"/>
    <rect x="1097.5" y="868.5" width="62" height="62" fill="#F2F2F6" stroke="#E2E8F0"/>
    <rect x="1159.5" y="868.5" width="62" height="62" fill="#F2F2F6" stroke="#E2E8F0"/>
    <rect x="1221.5" y="868.5" width="62" height="62" fill="#F2F2F6" stroke="#E2E8F0"/>
    <rect x="1283.5" y="868.5" width="62" height="62" fill="#F2F2F6" stroke="#E2E8F0"/>
    <rect x="1345.5" y="868.5" width="62" height="62" fill="#F2F2F6" stroke="#E2E8F0"/>
    <rect x="1407.5" y="868.5" width="62" height="62" fill="#F2F2F6" stroke="#E2E8F0"/>
    <rect x="1469.5" y="868.5" width="62" height="62" fill="#F2F2F6" stroke="#E2E8F0"/>
    <rect x="-18.5" y="930.5" width="62" height="62" fill="#F2F2F6" stroke="#E2E8F0"/>
    <rect x="43.5" y="930.5" width="62" height="62" fill="#F2F2F6" stroke="#E2E8F0"/>
    <rect x="105.5" y="930.5" width="62" height="62" fill="#F2F2F6" stroke="#E2E8F0"/>
    <rect x="167.5" y="930.5" width="62" height="62" fill="#F2F2F6" stroke="#E2E8F0"/>
    <rect x="229.5" y="930.5" width="62" height="62" fill="#F2F2F6" stroke="#E2E8F0"/>
    <rect x="291.5" y="930.5" width="62" height="62" fill="#F2F2F6" stroke="#E2E8F0"/>
    <rect x="353.5" y="930.5" width="62" height="62" fill="#F2F2F6" stroke="#E2E8F0"/>
    <rect x="415.5" y="930.5" width="62" height="62" fill="#F2F2F6" stroke="#E2E8F0"/>
    <rect x="477.5" y="930.5" width="62" height="62" fill="#F2F2F6" stroke="#E2E8F0"/>
    <rect x="539.5" y="930.5" width="62" height="62" fill="#F2F2F6" stroke="#E2E8F0"/>
    <rect x="601.5" y="930.5" width="62" height="62" fill="#F2F2F6" stroke="#E2E8F0"/>
    <rect x="663.5" y="930.5" width="62" height="62" fill="#F2F2F6" stroke="#E2E8F0"/>
    <rect x="725.5" y="930.5" width="62" height="62" fill="#F2F2F6" stroke="#E2E8F0"/>
    <rect x="787.5" y="930.5" width="62" height="62" fill="#F2F2F6" stroke="#E2E8F0"/>
    <rect x="849.5" y="930.5" width="62" height="62" fill="#F2F2F6" stroke="#E2E8F0"/>
    <rect x="911.5" y="930.5" width="62" height="62" fill="#F2F2F6" stroke="#E2E8F0"/>
    <rect x="973.5" y="930.5" width="62" height="62" fill="#F2F2F6" stroke="#E2E8F0"/>
    <rect x="1035.5" y="930.5" width="62" height="62" fill="#F2F2F6" stroke="#E2E8F0"/>
    <rect x="1097.5" y="930.5" width="62" height="62" fill="#F2F2F6" stroke="#E2E8F0"/>
    <rect x="1159.5" y="930.5" width="62" height="62" fill="#F2F2F6" stroke="#E2E8F0"/>
    <rect x="1221.5" y="930.5" width="62" height="62" fill="#F2F2F6" stroke="#E2E8F0"/>
    <rect x="1283.5" y="930.5" width="62" height="62" fill="#F2F2F6" stroke="#E2E8F0"/>
    <rect x="1345.5" y="930.5" width="62" height="62" fill="#F2F2F6" stroke="#E2E8F0"/>
    <rect x="1407.5" y="930.5" width="62" height="62" fill="#F2F2F6" stroke="#E2E8F0"/>
    <rect x="1469.5" y="930.5" width="62" height="62" fill="#F2F2F6" stroke="#E2E8F0"/>
    <rect width="1514" height="986" transform="matrix(1 0 0 -1 0 986)" fill="url(#paint0_linear_3469_22809)"/>
    <defs>
        <linearGradient id="paint0_linear_3469_22809" x1="757" y1="493" x2="757" y2="986" gradientUnits="userSpaceOnUse">
            <stop stop-color="#F2F2F6" stop-opacity="0"/>
            <stop offset="1" stop-color="#F2F2F6"/>
        </linearGradient>
    </defs>
</svg>